<?xml version="1.0" encoding="utf-8"?>
<!-- Generator: Adobe Illustrator 18.1.1, SVG Export Plug-In . SVG Version: 6.00 Build 0)  -->
<svg version="1.1" id="Layer_1" xmlns="http://www.w3.org/2000/svg" xmlns:xlink="http://www.w3.org/1999/xlink" x="0px" y="0px"
	 viewBox="0 0 91 82.5" enable-background="new 0 0 91 82.5" xml:space="preserve">
<g>
	<g>
		<circle fill="#3AB54A" cx="49.7" cy="40.9" r="38.6"/>
		<g>
			<defs>
				<circle id="SVGID_1_" cx="49.7" cy="40.9" r="38.6"/>
			</defs>
			<clipPath id="SVGID_2_">
				<use xlink:href="#SVGID_1_"  overflow="visible"/>
			</clipPath>
			<g clip-path="url(#SVGID_2_)">
				<path fill="#FFFFFF" d="M72.1,31.2c-1.6,0-3.8-1.8-4.8-2.9c0.1-2,0.5-9.8,0-13.9c0.4-0.5,0.7-0.8,0.9-0.8c0.9,0,2.6,2.5,3.9,4.4
					l0.6,0.9c2.6,3.8,2.3,10.4,0.2,12C72.7,31.2,72.4,31.2,72.1,31.2z"/>
				<path d="M68.3,14.8c0.7,0.5,2.1,2.5,3,3.9c0.2,0.3,0.4,0.6,0.6,0.9c2.4,3.5,2,9.4,0.5,10.6c0,0-0.1,0.1-0.3,0.1
					c-1,0-2.7-1.2-3.8-2.3C68.4,25.5,68.7,18.8,68.3,14.8 M68.2,12.7c-0.7,0-1.3,0.5-2,1.5c0.7,4.4,0,14.6,0,14.6s3.2,3.5,5.9,3.5
					c0.5,0,1-0.1,1.5-0.5c2.7-2,2.8-9.2,0-13.3C71.5,15.5,69.8,12.7,68.2,12.7L68.2,12.7z"/>
			</g>
			<g clip-path="url(#SVGID_2_)">
				<path fill="#FFFFFF" d="M74.5,89.1c-1.9,0-4-0.2-6.2-0.6c-0.5-0.6-1-3.2-1.5-5.5c-1.3-5.9-3.2-14.8-8.3-21.1
					c-3.4-4.3-8.4-6.4-14.8-6.4c-3.9,0-7.5,0.8-9.9,1.3c-0.9,0.2-1.7,0.4-2.2,0.4c-0.1,0-0.2,0-0.3,0c-2.1,0-5.9-1.9-6.2-3.3
					c-0.1-0.7,0.8-1.4,2.6-2.1c1.6-0.6,3.7-1.6,3.9-3.4c0.3-2.3-2.5-4.2-5.4-6.2c-1.1-0.7-2.1-1.4-2.9-2.1c-2.3-1.9-3-6.1-2.2-8.9
					c0.2-0.6,0.7-2.2,1.8-2.4c0.2,0,0.4,0,0.6,0c1.6,0,4,0.7,6.8,1.6c4,1.2,8.5,2.5,12.7,2.5c0.3,0,0.5,0,0.8,0c0,0,0,0,0,0
					c2.1,0,3.5-0.8,4.9-1.6c2-1.2,4.4-2.5,10.1-2.5c0.7,0,1.5,0,2.3,0.1l0.5,0l0.3-0.4c0.4-0.4,3.4-4.3-4.7-12.4L56.9,16L56.8,16
					c-0.6-0.4-0.7-0.6-0.7-0.7c0.1-0.3,1.3-1.1,3.3-1.1c0.9,0,1.7,0.2,2.4,0.5c3.7,1.7,6.9,9.3,8.2,12.2c1.4,3.2,8.1,13.9,13.6,22.6
					c2.6,4.2,4.9,7.8,6.1,9.8c0.4,1.5,4.2,16.2-2,24.3C85,87.2,80.5,89.1,74.5,89.1z"/>
				<path d="M59.5,15.3L59.5,15.3c0.8,0,1.4,0.1,2,0.4c3.3,1.5,6.6,9.1,7.7,11.6C70.5,30.5,77,40.9,82.8,50c2.6,4.1,4.8,7.7,6,9.6
					c0.5,1.9,3.9,15.7-1.9,23.3c-2.6,3.4-6.7,5.1-12.4,5.1c-1.7,0-3.6-0.2-5.6-0.5c-0.4-0.9-0.8-3.1-1.2-4.9c-1.3-6-3.3-15-8.5-21.5
					c-3.6-4.5-8.9-6.8-15.6-6.8c-4,0-7.7,0.8-10.1,1.3c-0.9,0.2-1.7,0.4-2.1,0.4c-0.1,0-0.1,0-0.2,0c-1.9,0-4.7-1.6-5.2-2.4
					c0.1-0.2,0.6-0.6,1.9-1.1c1-0.4,4.2-1.6,4.5-4.3c0.3-2.9-2.7-4.9-5.8-7.1c-1-0.7-2-1.4-2.8-2c-1.9-1.6-2.5-5.4-1.9-7.9
					c0.3-1,0.7-1.6,1-1.6c0.1,0,0.2,0,0.4,0c1.4,0,3.9,0.7,6.6,1.5c4,1.2,8.6,2.6,12.9,2.6c0.3,0,0.5,0,0.8,0c2.4,0,3.9-0.9,5.4-1.7
					c1.9-1.1,4.1-2.3,9.6-2.3c0.7,0,1.4,0,2.2,0.1l1,0.1l0.6-0.7c0.4-0.5,4-5-4.7-13.7C58.2,15.4,58.8,15.3,59.5,15.3 M59.5,13.3
					c-3.1,0-6,1.8-3.2,3.6c7.7,7.7,4.7,11,4.7,11c-0.8,0-1.6-0.1-2.3-0.1c-10,0-10.4,4.1-15,4.1c-0.2,0-0.5,0-0.7,0
					c-7,0-15.5-4.1-19.5-4.1c-0.3,0-0.5,0-0.8,0.1c-3.7,0.7-4,9.7,0,13c4,3.3,12.7,7,4.7,10c-7.7,2.9,0.4,7.4,4,7.4
					c0.1,0,0.2,0,0.4,0c1.7-0.2,6.6-1.7,12-1.7c4.9,0,10.2,1.3,14,6.1c8,10,8,26.6,10.3,27c2.4,0.4,4.6,0.6,6.5,0.6
					c25.2,0,16.1-31.3,16.1-31.3C87.3,53.2,73,31.2,71,26.5s-5-11-8.7-12.7C61.4,13.4,60.4,13.3,59.5,13.3L59.5,13.3z"/>
			</g>
		</g>
		<circle fill="none" stroke="#000000" stroke-width="2" stroke-miterlimit="10" cx="49.7" cy="40.9" r="38.6"/>
	</g>
	<ellipse cx="49.7" cy="36.6" rx="2" ry="2.3"/>
	<ellipse cx="22.8" cy="31.6" rx="2.8" ry="2.7"/>
	<line fill="#FFFFFF" stroke="#FFFFFF" stroke-width="2" stroke-miterlimit="10" x1="18.3" y1="41.9" x2="4" y2="38.9"/>
	<line fill="#FFFFFF" stroke="#FFFFFF" stroke-width="2" stroke-miterlimit="10" x1="18.3" y1="47.2" x2="0" y2="47.2"/>
	<line fill="#FFFFFF" stroke="#FFFFFF" stroke-width="2" stroke-miterlimit="10" x1="20" y1="50.6" x2="7" y2="55.2"/>
</g>
</svg>
